<?xml version="1.0" encoding="utf-8"?>
<!-- Generator: Adobe Illustrator 23.1.0, SVG Export Plug-In . SVG Version: 6.00 Build 0)  -->
<svg version="1.1" id="Capa_1" xmlns="http://www.w3.org/2000/svg" xmlns:xlink="http://www.w3.org/1999/xlink" x="0px" y="0px"
	 viewBox="0 0 583.06 180.99" style="enable-background:new 0 0 583.06 180.99;" xml:space="preserve">
<style type="text/css">
	.st0{fill:#C1D348;}
	.st1{fill:#6E7072;}
</style>
<g>
	<path class="st0" d="M392.38,0h15.46c2.09,0,3.78,1.69,3.78,3.78v173.42c0,2.09-1.69,3.78-3.78,3.78h-15.46
		c-2.09,0-3.78-1.69-3.78-3.78V3.78C388.6,1.69,390.29,0,392.38,0z"/>
	<path class="st1" d="M458.97,166.36l90.95-141.03c1.62-2.52-0.18-5.83-3.18-5.83h-76.02c-2.09,0-3.78-1.69-3.78-3.78V3.78
		c0-2.09,1.69-3.78,3.78-3.78h107.67c2.09,0,3.78,1.69,3.78,3.78v8.79c0,0.73-0.21,1.44-0.6,2.05l-90.95,141.03
		c-1.62,2.52,0.18,5.83,3.18,5.83h85.49c2.09,0,3.78,1.69,3.78,3.78v11.93c0,2.09-1.69,3.78-3.78,3.78H462.15
		c-2.09,0-3.78-1.69-3.78-3.78v-8.79C458.37,167.69,458.57,166.97,458.97,166.36z"/>
	<path class="st1" d="M120.91,180.99H3.78c-2.09,0-3.78-1.69-3.78-3.78l0-11.93c0-2.09,1.69-3.78,3.78-3.78h85.49
		c3,0,4.8-3.32,3.18-5.83L1.5,14.63c-0.39-0.61-0.6-1.32-0.6-2.05V3.78C0.9,1.69,2.59,0,4.68,0l107.67,0c2.09,0,3.78,1.69,3.78,3.78
		v11.93c0,2.09-1.69,3.78-3.78,3.78H36.33c-3,0-4.8,3.32-3.18,5.83l90.95,141.03c0.39,0.61,0.6,1.32,0.6,2.05v8.79
		C124.7,179.3,123,180.99,120.91,180.99z"/>
	<g>
		<path class="st1" d="M173.07,0c-1.95,0-3.54,1.46-3.54,3.26v14.69v0c0,1.8,1.58,3.26,3.54,3.26h100c1.95,0,3.54-1.46,3.54-3.26v0
			V3.26c0-1.8-1.58-3.26-3.54-3.26H173.07z"/>
		<path class="st1" d="M173.07,161.14c-1.95,0-3.54,1.37-3.54,3.05v13.75l0,0c0,1.68,1.58,3.05,3.54,3.05h100
			c1.95,0,3.54-1.37,3.54-3.05l0,0v-13.75c0-1.68-1.58-3.05-3.54-3.05H173.07z"/>
		<path class="st1" d="M230.01,92.01l14.34,6.67c0.82,0.38,0.55,1.61-0.36,1.61h-70.78c-2.04,0-3.69-1.65-3.69-3.69V80.96
			c0-2.04,1.65-3.69,3.69-3.69H244c0.9,0,1.17,1.23,0.36,1.61l-14.34,6.67C227.26,86.82,227.26,90.73,230.01,92.01z"/>
	</g>
	<path class="st0" d="M286.22,92.22c-2.95-1.35-2.95-5.54,0-6.89l26.03-11.88l28.21-12.88c2.51-1.14,5.36,0.69,5.36,3.44v24.76
		v24.76c0,2.75-2.85,4.59-5.36,3.44l-28.21-12.88L286.22,92.22z"/>
</g>
</svg>
